<?xml version="1.0" encoding="UTF-8"?>
<svg id="Layer_1" data-name="Layer 1" xmlns="http://www.w3.org/2000/svg" viewBox="0 0 310 72">
  <defs>
    <style>
      .cls-1 {
        fill: #42a5f5;
      }
    </style>
  </defs>
  <g>
    <path class="cls-1" d="M68.3,35.95c0,6.89-2.79,13.13-7.31,17.64-4.51,4.52-10.75,7.31-17.64,7.31h-11.82v-9.19c4.35,0,8.29-1.76,11.14-4.62,2.85-2.85,4.62-6.79,4.62-11.14,0-8.7-7.06-15.76-15.76-15.76v-9.19h11.82c13.78,0,24.95,11.17,24.95,24.95Z"/>
    <path class="cls-1" d="M31.53,20.19v31.51c-8.7,0-15.76-7.06-15.76-15.76v-15.76h15.76Z"/>
  </g>
  <g>
    <path d="M84.05,20.19h12c10.95,0,15.94,6.87,15.94,15.76s-4.99,15.76-15.94,15.76h-12v-31.53ZM96.05,46.2c6.61,0,9.28-4.51,9.28-10.25s-2.67-10.25-9.28-10.25h-5.6v20.49h5.6Z"/>
    <path d="M128.5,49.18c-1.97,2.28-4.33,3.06-7.22,3.06-4.9,0-8.32-2.45-8.32-6.92,0-4.07,2.8-6,8.89-7.05l6.48-1.14v-1.18c0-1.88-1.05-3.02-3.94-3.02-2.45,0-4.33,1.05-4.42,3.33h-5.91c.09-5.38,4.64-7.84,10.29-7.84,6.61,0,9.81,2.63,9.81,6.83v16.46h-5.65v-2.54ZM122.77,47.95c2.8,0,5.56-1.44,5.56-5.04v-1.93l-5.34,1.1c-2.54.48-3.94,1.09-3.94,3.02,0,1.71,1.23,2.84,3.72,2.84Z"/>
    <path d="M135.81,44.23h5.78c.31,2.93,2.1,3.85,5.03,3.85,2.45,0,4.16-.92,4.16-2.54,0-1.53-.61-2.19-5.25-2.98-7.14-1.23-9.24-3.5-9.24-7.22,0-4.38,3.81-6.92,9.68-6.92,6.74,0,10.03,3.11,10.16,7.79h-5.52c-.09-2.93-2.28-3.63-4.64-3.63-2.23,0-3.85.87-3.85,2.45s1.05,2.23,5.52,2.93c7.05,1.14,9.06,3.37,9.06,7.18,0,4.6-4.25,7.09-10.29,7.09s-10.25-2.23-10.6-8.01Z"/>
    <path d="M158.78,20.19h5.95v11.69c1.58-2.01,3.9-3.46,7.05-3.46,5.12,0,8.1,3.42,8.1,9.11v14.19h-5.95v-13.49c0-2.63-1.09-4.64-4.16-4.64-2.1,0-4.99,1.36-4.99,5.65h-.04v12.48h-5.95v-31.53Z"/>
    <path d="M183.12,20.19h5.95v5.3h-5.95v-5.3ZM183.12,28.95h5.95v22.77h-5.95v-22.77Z"/>
    <path d="M203.31,33.59c-2.1,0-4.99,1.36-4.99,5.65h-.04v12.48h-5.95v-22.77h5.78v3.15c1.58-2.1,3.94-3.68,7.22-3.68,5.12,0,8.1,3.42,8.1,9.11v14.19h-5.95v-13.49c0-2.63-1.09-4.64-4.16-4.64Z"/>
    <path d="M216.48,52.94h5.87c.31,2.5,2.15,3.46,4.77,3.46s5.52-.96,5.52-5.3v-2.76c-1.53,2.01-3.81,3.2-6.92,3.2-6.57,0-10.11-4.99-10.11-11.56s3.55-11.56,10.11-11.56c3.24,0,5.56,1.27,7.09,3.42v-2.89h5.78v22.15c0,6.79-5.17,9.9-11.69,9.9s-10.11-3.11-10.42-8.06ZM227.16,46.77c3.81,0,5.52-2.71,5.52-6.79s-1.71-6.79-5.52-6.79-5.52,2.71-5.52,6.79,1.71,6.79,5.52,6.79Z"/>
    <path d="M242.27,20.19h6.39v15.02l14.32-15.02h7.97l-12.65,12.79,12.65,18.74h-7.66l-9.37-14.27-5.25,5.3v8.98h-6.39v-31.53Z"/>
    <path d="M272.14,20.19h5.95v5.3h-5.95v-5.3ZM272.14,28.95h5.95v22.77h-5.95v-22.77Z"/>
    <path d="M283.46,33.46h-3.94v-4.51h3.94v-7.01h5.95v7.01h4.82v4.51h-4.82v18.26h-5.95v-18.26Z"/>
  </g>
</svg>